<svg width="356" height="400" viewBox="0 0 356 400" fill="none" xmlns="http://www.w3.org/2000/svg">
<g clip-path="url(#clip0_261_241)">
<path d="M286.998 243.786C287.395 242.419 287.615 240.963 287.791 239.596C287.659 237.302 287.571 229.451 286.425 222.217C286.557 220.144 286.248 218.115 285.234 216.219C285.146 216.042 285.058 215.91 284.97 215.734C284.132 213.131 283.03 211.014 281.619 209.779C281.883 205.501 281.619 206.427 280.957 202.722C279.899 199.943 277.738 197.826 275.798 195.576C275.666 194.738 275.357 193.9 274.872 193.151C274.784 193.018 274.74 192.842 274.652 192.709C274.608 192.577 274.564 192.445 274.52 192.312C274.123 191.298 273.991 190.239 272.977 187.461C270.596 182.035 265.172 178.066 261.733 175.375C261.689 174.934 261.601 174.493 261.38 174.14C261.336 173.964 261.204 173.743 261.116 173.567C261.116 173.567 261.116 173.567 261.116 173.611C260.41 172.42 260.366 172.111 260.763 173.126C258.735 167.083 252.297 164.525 246.918 162.187C244.713 161.217 243.391 160.599 242.244 160.246C240.304 158.438 237.615 157.247 235.586 155.659C233.117 154.292 230.339 152.66 227.473 151.337C226.636 150.807 225.798 150.234 224.96 149.749C224.475 149.396 223.02 148.69 222.094 148.293C220.816 147.102 219.537 145.735 217.861 145.206C217.376 144.985 216.098 144.853 215.48 144.809C213.011 144.279 213.32 143.706 211.38 143.133C207.985 140.751 204.369 138.59 200.93 136.384C198.02 134.664 195.154 132.944 192.288 131.135C191.494 130.386 190.701 129.636 189.907 129.018C182.808 123.637 174.563 120.197 166.45 116.624C165.7 115.477 164.51 114.727 163.275 114.11C160.542 111.772 161.423 112.831 159.704 111.331C157.014 109.39 154.28 106.7 150.753 102.995C151.15 101.407 151.238 98.8047 151.238 96.4229C151.326 95.4525 151.459 94.3499 151.723 92.8943C152.296 92.1445 152.781 91.3064 153.31 90.6448C155.162 87.5573 156.838 84.3816 158.734 81.2941C161.071 79.1328 167.155 77.5008 166.229 73.9281C165.7 72.4726 163.937 72.3844 162.658 72.8254C162.482 72.8254 162.526 72.8254 162.658 72.8254C161.291 72.9136 159.968 73.4429 158.602 73.5753C157.191 73.9281 157.852 73.5752 155.868 74.1486C155.647 74.1486 155.118 74.4574 154.633 74.7662C154.148 74.8544 153.663 75.119 153.266 75.4719C152.605 75.4719 150.709 75.3837 149.783 75.7806C147.049 76.354 145.197 78.3389 143.346 80.2796C143.037 80.6324 142.684 80.9412 142.331 81.2941C141.626 81.4705 140.965 81.6469 140.303 81.9998C138.76 82.8819 136.467 84.9109 135.806 86.9398C135.585 87.028 135.321 87.028 135.056 87.1162C133.557 87.5573 132.102 88.6159 131.176 89.9391C128.442 91.7034 126.061 94.1734 126.282 97.6579C126.238 97.9667 126.282 98.3195 126.282 98.6283C125.576 99.2017 125.047 99.9956 124.651 100.878C124.298 101.583 123.901 102.245 123.548 102.951C121.476 106.876 121.873 111.552 124.121 115.257C124.827 118.212 126.017 121.079 127.781 123.549C129.192 125.446 130.471 127.563 132.499 128.886C132.499 128.886 132.675 129.062 133.116 129.415C134.792 130.959 136.6 132.282 138.54 133.385C138.275 133.473 138.055 133.561 137.79 133.65C134.924 133.87 131.793 136.252 131 136.208C121.696 138.942 114.906 146.308 109.527 154.027C104.324 161.481 100.973 172.023 106 180.315C106.573 180.889 107.234 181.242 107.94 181.418C108.116 182.653 108.336 183.844 108.645 184.991C108.777 186.27 109.703 188.21 109.659 188.034C109.747 188.255 109.836 188.475 109.924 188.652C110.056 189.313 110.321 189.931 110.673 190.504C110.673 190.46 110.673 190.372 110.673 190.328C111.07 191.077 111.555 191.739 112.349 192.224C115.92 194.43 120.285 190.328 118.566 186.667C117.816 181.55 117.243 181.55 117.64 177.581C117.772 176.963 118.037 175.684 118.345 175.243C119.051 174.581 120.374 170.391 121.917 166.995C121.961 166.951 122.005 166.862 122.049 166.818C123.416 165.539 124.739 164.128 126.15 162.893C126.017 162.981 125.753 163.202 125.576 163.334C131.353 158.747 132.499 156.894 138.451 154.204C142.464 151.425 145.903 150.984 148.196 150.719C149.078 150.499 148.989 151.513 151.988 150.234C152.958 149.705 153.575 148.867 153.84 147.896C155.559 147.896 157.279 147.896 158.998 147.808C162.614 148.117 166.891 148.337 171.124 148.426C177.208 151.337 189.378 157.335 196.653 155.659C200.533 159.144 204.413 161.834 207.941 164.834C208.382 165.231 208.778 165.627 209.263 166.024C209.352 166.069 209.396 166.113 209.484 166.201C211.777 168.494 213.364 170.92 214.202 171.406C214.334 171.494 214.466 171.538 214.554 171.626C216.142 175.155 219.36 180.977 222.094 184.77C222.447 188.034 223.196 191.695 222.976 196.238C223.373 200.164 224.078 202.457 224.475 204.707C224.431 205.986 224.343 207.221 224.343 208.5C223.241 211.984 222.491 215.601 221.477 219.13C220.066 223.011 218.479 226.187 215.304 231.215C215.216 231.436 215.084 231.656 214.951 231.877C214.246 231.877 213.54 232.009 212.879 232.362C210.498 233.288 208.911 235.538 207.897 237.787C207.323 239.066 206.662 240.434 206.177 241.801C205.251 242.374 204.546 243.301 204.237 244.403C204.325 244.183 204.457 243.83 204.546 243.654C204.457 243.565 202.605 245.462 201.15 247.138C199.343 248.153 199.034 248.682 197.888 249.211C197.888 249.211 197.888 249.211 197.843 249.211C197.711 249.255 197.579 249.299 197.403 249.388C195.903 249.961 194.537 250.755 193.126 251.505C189.686 252.607 186.071 252.96 182.499 253.622C176.635 253.269 174.916 261.958 181.706 262.664C181.706 262.664 181.75 262.664 181.794 262.664C182.411 263.017 183.029 263.325 183.69 263.546C184.131 263.811 185.63 264.605 186.203 264.737C187.129 265.046 188.055 265.046 189.025 265.134C189.201 265.134 189.378 265.222 189.51 265.266C189.995 265.487 190.436 265.751 190.877 266.016C190.965 266.457 191.053 266.854 191.186 267.251C191.671 269.104 191.847 271.265 193.346 272.632C194.228 273.382 195.11 273.779 195.992 273.911C195.992 273.999 196.08 274.088 196.124 274.176C195.948 277.352 196.212 280.66 196.829 284.012C196.036 286.041 195.374 288.202 194.933 290.099C193.126 295.744 192.332 303.022 194.889 305.801C194.889 305.977 194.801 306.154 194.801 306.374C194.933 308.491 196.212 310.079 197.888 311.403C200.048 314.446 203.884 316.784 207.412 318.239C208.734 321.459 212.35 324.502 215.524 324.679C216.142 324.767 216.759 324.767 217.376 324.811C217.729 324.899 218.038 324.944 218.39 324.988C218.92 325.473 219.405 325.958 219.845 326.399C220.86 327.766 222.8 330.545 223.285 332.001C223.373 333.059 223.681 335.309 224.211 335.794C224.211 335.794 224.211 335.838 224.211 335.882C224.211 336.367 224.211 336.897 224.299 337.426C225.357 341.616 231.53 341.572 232.72 337.602C232.412 338.396 232.5 338.176 232.72 337.602C233.823 335.926 234.264 335.221 235.498 333.986H235.586C235.851 333.986 236.115 333.809 236.38 333.765C236.38 333.765 236.38 333.809 236.38 333.853C236.645 333.721 236.865 333.677 237.041 333.589C237.482 333.456 237.923 333.28 238.32 333.103C238.673 332.971 239.114 332.751 239.775 332.442C240.172 332.133 240.481 331.78 240.877 331.471C241.847 330.722 242.773 329.928 243.655 329.178C243.964 328.825 244.273 328.516 244.581 328.163C245.595 327.193 246.609 326.223 247.624 325.208C249.74 323.929 251.768 322.474 253.488 320.665C255.56 319.651 257.544 318.416 259.352 317.004C257.192 318.68 260.983 316.21 260.939 314.755C260.939 314.667 260.939 314.622 260.939 314.534C261.424 314.27 261.821 313.961 262.086 313.608C262.438 313.035 262.438 312.373 262.262 311.844C262.879 311.314 263.453 310.829 264.026 310.256C265.657 308.139 266.671 308.359 267.333 306.242C267.333 306.154 267.333 306.11 267.333 306.021C267.333 305.977 267.421 305.933 267.421 305.889C267.95 304.213 266.142 302.581 264.511 303.243C263.32 303.551 262.438 304.389 261.601 305.272C261.028 305.757 260.498 306.286 260.013 306.86C259.043 307.609 258.073 308.447 257.192 309.285C253.664 309.109 253.973 310.565 251.856 311.447C251.283 311.755 250.842 312.02 250.357 312.329C249.784 311.358 249.211 310.432 248.549 309.594C248.549 309.594 248.549 309.55 248.461 309.462C247.976 307.874 247.006 306.551 245.948 305.316C245.948 305.051 245.816 304.831 245.816 304.566C245.904 304.037 244.802 298.832 244.184 294.995C244.14 294.686 244.096 294.333 244.052 293.98C244.934 291.642 249.079 285.512 250.445 284.232C257.544 274.705 271.081 262.179 275.005 259.312C277.298 258.033 279.194 256.224 281.178 254.504C282.853 253.269 284.705 252.255 286.248 250.887C289.026 249.299 288.85 245.638 286.866 243.786H286.998Z" fill="#7FCDEE"/>
<path d="M166.801 298.126C166.801 296.538 165.435 295.436 164.024 295.436C162.348 293.804 159.526 293.054 157.454 294.024C154.5 294.686 152.207 298.126 154.059 300.905C154.059 300.905 154.103 300.949 154.147 300.993C154.323 302.14 154.941 303.022 156.219 303.243C157.233 304.213 158.336 305.007 159.703 305.184C160.849 305.228 161.731 304.875 162.436 304.301C162.701 304.39 162.965 304.478 163.362 304.566C164.244 304.566 164.861 304.081 165.214 303.375C166.537 302.317 166.978 299.714 166.801 298.126Z" fill="#7FCDEE"/>
<path d="M246.827 291.114C244.137 297.598 244.71 305.361 250.222 310.477C258.511 306.684 266.58 302.317 273.988 297.333C270.989 302.538 267.462 307.478 263.406 312.241C250.839 326.885 237.127 336.324 223.37 342.19C178.219 361.289 132.54 341.132 125.397 336.809C108.466 326.488 109.965 324.018 111.508 316.079C115.3 296.407 125.221 284.63 136.641 275.191C145.547 267.869 158.554 262.444 169.666 258.695C179.675 255.299 188.184 253.181 190.874 252.167C201.28 248.285 209.04 237.567 214.992 228.658C218.828 223.012 221.694 214.587 222.708 206.692C223.282 202.149 223.282 197.782 222.532 194.122C219.269 178.463 208.378 163.555 191.756 155.395C175.133 147.235 152.822 146.706 136.729 155.528C122.928 163.07 115.212 177.714 118.078 190.902C118.475 192.754 115.697 193.857 114.198 192.401C105.379 183.668 101.675 171.318 105.203 160.291C109.48 146.882 124.074 136.164 140.697 134.091C129.542 131.136 122.178 121.3 122.09 111.641C121.782 82.4856 163.581 68.7241 168.078 73.3113C168.387 73.5759 145.591 92.3657 152.955 103.304C156.658 108.862 163.184 112.699 169.489 116.36C189.595 128.004 209.745 139.693 229.851 151.337C242.329 158.571 254.984 165.937 264.376 175.861C274.164 186.182 279.852 198.797 283.467 211.544C287.171 224.512 288.714 238.097 287.788 251.461C278.088 258.607 268.961 266.281 260.363 274.177C254.852 279.293 249.428 284.718 246.783 291.202L246.827 291.114Z" stroke="#7FCDEE" stroke-width="6.06867" stroke-miterlimit="10"/>
<path d="M202.338 244.449C198.59 242.155 189.684 237.568 188.184 233.687C186.729 229.805 187.303 225.35 187.347 221.293C187.347 212.339 182.541 203.473 174.428 197.519C182.761 191.211 193.784 181.596 204.234 185.124C214.684 188.653 222.224 197.475 222.753 206.781" stroke="#7FCDEE" stroke-width="6.06867" stroke-miterlimit="10"/>
<path d="M292.242 281.809C286.995 287.588 280.778 292.748 274.032 297.335C266.625 302.319 258.556 306.686 250.267 310.479C244.755 305.407 244.182 297.6 246.872 291.116C249.517 284.632 254.896 279.207 260.452 274.091C269.05 266.151 278.177 258.521 287.877 251.375C293.609 247.141 299.518 243.127 305.646 239.334C309.526 254.066 303.265 269.724 292.286 281.809H292.242Z" stroke="#7FCDEE" stroke-width="6.06867" stroke-miterlimit="10"/>
<path d="M169.314 258.783C182.895 258.827 194.579 268.266 195.593 279.381C196.431 288.997 189.861 299.009 194.271 307.919C196.563 312.55 201.458 315.946 206.44 318.858C211.422 321.769 216.714 324.459 220.461 328.429C224.209 332.399 226.061 338.044 223.239 342.455" stroke="#7FCDEE" stroke-width="6.06867" stroke-miterlimit="10"/>
<path d="M159.79 305.846C163.857 305.846 167.154 303.12 167.154 299.759C167.154 296.397 163.857 293.672 159.79 293.672C155.723 293.672 152.427 296.397 152.427 299.759C152.427 303.12 155.723 305.846 159.79 305.846Z" stroke="#7FCDEE" stroke-width="6.06867" stroke-miterlimit="10"/>
<path d="M81.9453 90.1181L52.2669 46.2516L78.5639 28.4477L81.752 33.16L60.7658 47.3683L70.7938 62.1904L89.8099 49.3159L92.998 54.0281L73.9819 66.9026L87.2561 86.5226L81.9453 90.1181Z" fill="#7FCDEE"/>
<path d="M105.944 75.44L88.1501 39.9259L93.6059 37.1905L111.399 72.7046L105.944 75.44ZM87.9586 32.616C86.8952 33.1492 85.7967 33.2467 84.6631 32.9086C83.545 32.5628 82.731 31.8812 82.2213 30.8639C81.7116 29.8466 81.6529 28.7864 82.0451 27.6833C82.4527 26.5724 83.1882 25.7504 84.2517 25.2173C85.3151 24.6841 86.4059 24.5904 87.524 24.9363C88.6576 25.2744 89.4792 25.9521 89.989 26.9694C90.4987 27.9868 90.5497 29.0508 90.1421 30.1616C89.7499 31.2647 89.0221 32.0829 87.9586 32.616Z" fill="#7FCDEE"/>
<path d="M116.402 44.9992L124.211 67.5827L118.443 69.5784L105.462 32.037L111.034 30.109L113.063 35.9748L113.551 35.8057C113.772 33.5949 114.579 31.6009 115.971 29.8239C117.357 28.0307 119.468 26.6435 122.303 25.6626C124.845 24.7832 127.249 24.5351 129.516 24.9183C131.777 25.2852 133.8 26.3365 135.586 28.0719C137.366 29.7911 138.809 32.2476 139.913 35.4412L148.161 59.2956L142.393 61.2913L134.28 37.8279C133.261 34.8787 131.701 32.8462 129.6 31.7304C127.494 30.5984 125.105 30.4946 122.433 31.4191C120.592 32.0562 119.084 33.0248 117.91 34.3249C116.752 35.6194 116.023 37.1762 115.722 38.9954C115.42 40.8145 115.647 42.8158 116.402 44.9992Z" fill="#7FCDEE"/>
<path d="M145.078 61.5109L136.778 9.20248L168.142 4.22194L169.033 9.84102L144.004 13.8157L146.808 31.4903L169.488 27.8887L170.38 33.5078L147.7 37.1093L151.413 60.5051L145.078 61.5109Z" fill="#7FCDEE"/>
<path d="M173.024 58.377L171.949 18.6693L178.05 18.5041L179.124 58.2118L173.024 58.377ZM174.873 11.9673C173.683 11.9995 172.647 11.6223 171.763 10.8356C170.897 10.0484 170.448 9.08614 170.418 7.94868C170.387 6.81122 170.783 5.82606 171.605 4.99319C172.445 4.15986 173.46 3.72709 174.649 3.69491C175.838 3.66272 176.866 4.0402 177.732 4.82735C178.616 5.61403 179.073 6.57611 179.104 7.71357C179.135 8.85103 178.73 9.83642 177.89 10.6698C177.068 11.5026 176.062 11.9352 174.873 11.9673Z" fill="#7FCDEE"/>
<path d="M195.44 35.2564L192.993 59.0262L186.922 58.4007L190.99 18.8873L196.855 19.4916L196.22 25.6655L196.734 25.7185C197.867 23.8074 199.439 22.3402 201.451 21.3169C203.464 20.2765 205.963 19.91 208.947 20.2174C211.623 20.493 213.907 21.283 215.801 22.5873C217.696 23.8744 219.087 25.6816 219.974 28.0088C220.863 30.3188 221.134 33.1545 220.788 36.5159L218.203 61.6234L212.132 60.9979L214.675 36.3021C214.994 33.1979 214.437 30.6968 213.003 28.7985C211.571 26.8832 209.449 25.7806 206.637 25.4908C204.699 25.2912 202.923 25.5329 201.31 26.216C199.715 26.9009 198.397 28.0043 197.356 29.5263C196.315 31.0483 195.677 32.9583 195.44 35.2564Z" fill="#7FCDEE"/>
<path d="M227.88 67.0279C224.697 66.1174 222.118 64.5096 220.141 62.2046C218.169 59.8831 216.916 57.0502 216.384 53.706C215.857 50.3452 216.171 46.6425 217.327 42.5978C218.474 38.5863 220.157 35.3021 222.377 32.7451C224.596 30.1881 227.162 28.4565 230.075 27.5504C232.988 26.6444 236.052 26.6513 239.268 27.5713C241.754 28.2826 243.6 29.2589 244.805 30.5003C246.031 31.7299 246.877 32.9759 247.34 34.2383C247.826 35.4889 248.189 36.5074 248.43 37.2938L248.928 37.436L254.302 18.6384L260.17 20.3171L245.611 71.2398L239.942 69.618L241.62 63.75L240.924 63.5508C240.294 64.1237 239.429 64.8268 238.33 65.6601C237.236 66.4768 235.833 67.0885 234.121 67.4953C232.413 67.8855 230.333 67.7297 227.88 67.0279ZM230.183 61.9842C232.536 62.6576 234.701 62.6133 236.676 61.8513C238.656 61.0728 240.381 59.7105 241.852 57.7642C243.328 55.8014 244.478 53.3778 245.302 50.4935C246.117 47.6424 246.416 45.0291 246.199 42.6536C245.986 40.2616 245.238 38.2365 243.955 36.5782C242.676 34.9034 240.844 33.7246 238.457 33.0417C235.971 32.3304 233.716 32.3759 231.694 33.178C229.693 33.9684 227.967 35.3307 226.518 37.2652C225.089 39.1877 223.991 41.4917 223.224 44.1771C222.446 46.8956 222.155 49.4841 222.348 51.9424C222.563 54.3889 223.304 56.5017 224.571 58.2807C225.859 60.0479 227.729 61.2824 230.183 61.9842Z" fill="#7FCDEE"/>
<path d="M255.892 79.1726C252.446 77.507 249.841 75.3094 248.077 72.5801C246.336 69.8427 245.453 66.7737 245.43 63.3731C245.43 59.9645 246.315 56.4284 248.085 52.7646C249.854 49.1009 252.082 46.1945 254.766 44.0454C257.474 41.8882 260.41 40.6072 263.573 40.2022C266.759 39.7892 269.967 40.363 273.195 41.9236C275.058 42.824 276.747 44.0236 278.264 45.5224C279.78 47.0212 280.945 48.8294 281.761 50.9468C282.583 53.0488 282.886 55.4546 282.668 58.1644C282.451 60.8741 281.536 63.8979 279.924 67.2356L278.799 69.5643L251.231 56.2389L253.526 51.4884L275.506 62.1127C276.48 60.0946 276.947 58.0987 276.904 56.125C276.878 54.1589 276.348 52.3615 275.316 50.7327C274.299 49.1115 272.798 47.8207 270.811 46.8603C268.622 45.8024 266.466 45.4304 264.342 45.7443C262.242 46.0501 260.348 46.8583 258.662 48.1689C256.976 49.4794 255.657 51.1205 254.704 53.0921L253.175 56.259C251.87 58.9603 251.229 61.4752 251.253 63.8038C251.3 66.1244 251.926 68.1789 253.13 69.9673C254.341 71.7401 256.057 73.163 258.277 74.2359C259.72 74.9337 261.122 75.3621 262.481 75.5212C263.863 75.6723 265.18 75.5428 266.431 75.1326C267.689 74.707 268.851 73.9857 269.917 72.9689L274.506 77.0253C273.077 78.556 271.373 79.6855 269.394 80.4139C267.422 81.1268 265.282 81.3946 262.975 81.2174C260.674 81.0247 258.313 80.3431 255.892 79.1726Z" fill="#7FCDEE"/>
<path d="M264.334 83.5864L286.495 50.6206L291.387 53.9117L288.04 58.8909L288.383 59.1219C290.08 57.895 292.057 57.3028 294.314 57.3455C296.57 57.3882 298.686 58.0735 300.66 59.4015C301.032 59.6517 301.492 59.9716 302.04 60.3612C302.588 60.7508 302.996 61.0562 303.263 61.2772L299.8 66.4281C299.657 66.2697 299.307 65.9407 298.75 65.4411C298.216 64.9367 297.613 64.4584 296.941 64.0061C295.339 62.9284 293.682 62.3023 291.971 62.1279C290.284 61.9489 288.682 62.2006 287.163 62.8831C285.669 63.5609 284.422 64.6438 283.421 66.1318L269.398 86.993L264.334 83.5864Z" fill="#7FCDEE"/>
</g>
<defs>
<clipPath id="clip0_261_241">
<rect width="356" height="399.746" fill="white"/>
</clipPath>
</defs>
</svg>
